<svg xmlns="http://www.w3.org/2000/svg" width="35" height="36.003" viewBox="0 0 35 36.003"><defs><style>.a{fill:#803e38;}</style></defs><g transform="translate(-0.5)"><path class="a" d="M.952,36A.525.525,0,0,1,.5,35.413,175.708,175.708,0,0,1,3.545,15.8C4.853,10.411,6.48,7.178,8.663,5.628c1.229-3.064,2.957-3.717,5.44-3.667a4.853,4.853,0,0,1,7.794,0c2.423-.047,4.183.587,5.407,3.586l.033.082c2.184,1.55,3.81,4.783,5.118,10.172A175.709,175.709,0,0,1,35.5,35.413a.525.525,0,0,1-.449.586.517.517,0,0,1-.571-.461,174.893,174.893,0,0,0-3.018-19.484c-.967-3.986-2.087-6.71-3.462-8.381.763,2.9,1.4,7.425,2.165,15.085a.524.524,0,0,1-.459.578.518.518,0,0,1-.563-.471C28.35,14.953,27.625,9.38,26.5,6.328a5.045,5.045,0,0,0-3.39-.685,7.811,7.811,0,0,1,2.422,5.678V12.49a1.334,1.334,0,0,1,.338-.043,1.39,1.39,0,0,1,1.37,1.406v1.53a1.762,1.762,0,0,1-1.61,1.916,1.769,1.769,0,0,0,.588.61,2.293,2.293,0,0,1,0,3.911c-.413.318-.685.528-.685,1.112a.514.514,0,1,1-1.027,0,2.275,2.275,0,0,1,1.1-1.955c.413-.318.685-.528.685-1.112s-.273-.794-.685-1.112a4.475,4.475,0,0,1-.492-.421,8.849,8.849,0,0,1-3.351,4.816c.04,2.143.609,2.856,2.7,3.528,2.245.723,3.963,1.482,5.047,2.841,1.036,1.3,1.478,3.081,1.478,5.96a.514.514,0,1,1-1.027,0c0-5.109-1.378-6.37-5.8-7.794-2.312-.744-3.221-1.754-3.388-3.957a6.408,6.408,0,0,1-5.519,0c-.167,2.2-1.076,3.213-3.388,3.957a18.8,18.8,0,0,0-2.537.98.508.508,0,0,1-.685-.247.534.534,0,0,1,.241-.7,19.749,19.749,0,0,1,2.674-1.035c2.086-.671,2.655-1.385,2.7-3.528a8.849,8.849,0,0,1-3.35-4.816,4.476,4.476,0,0,1-.492.421c-.413.318-.685.528-.685,1.112s.273.794.685,1.112a2.275,2.275,0,0,1,1.1,1.955.514.514,0,1,1-1.027,0c0-.584-.273-.794-.685-1.112a2.293,2.293,0,0,1,0-3.911,1.767,1.767,0,0,0,.588-.61,1.762,1.762,0,0,1-1.61-1.916v-1.53a1.39,1.39,0,0,1,1.37-1.406,1.334,1.334,0,0,1,.338.043V11.321a7.9,7.9,0,0,1,.456-2.657.51.51,0,0,1,.659-.314.532.532,0,0,1,.306.676,6.819,6.819,0,0,0-.394,2.295v1.963q.073-.062.152-.122a6.436,6.436,0,0,1,1.464-.782,3.04,3.04,0,0,1,.6-.233c.224-.084.459-.169.705-.258l.415-.151.327-.119c2.346-.85,5.005-1.813,5.005-4.733a.514.514,0,1,1,1.027,0c0,1.305.932,2.088,1.918,2.918.114.1.227.191.338.286a5.171,5.171,0,0,1,1.061,1.29v-.061A6.73,6.73,0,0,0,21.716,5.84a.516.516,0,0,1-.207-.142A6.363,6.363,0,0,0,14.5,5.689a.515.515,0,0,1-.226.155A6.607,6.607,0,0,0,12.99,7.059a.5.5,0,0,1-.723.069.537.537,0,0,1-.067-.743,7.733,7.733,0,0,1,.684-.742A5.046,5.046,0,0,0,9.5,6.329q-.042.114-.083.232c-1.193,3.423-1.957,9.81-2.949,20.4a.517.517,0,0,1-.561.474.524.524,0,0,1-.462-.575c.875-9.336,1.578-15.442,2.562-19.186-1.376,1.67-2.5,4.395-3.463,8.383A174.914,174.914,0,0,0,1.524,35.539.519.519,0,0,1,1.014,36a.512.512,0,0,1-.062,0ZM22.787,10.9c-.108-.093-.219-.186-.33-.279a8.487,8.487,0,0,1-1.672-1.7,4.911,4.911,0,0,1-1.571,1.914,11.469,11.469,0,0,1-2.886,1.477q.093.042.181.09a.535.535,0,0,1,.213.713.507.507,0,0,1-.695.218,2.966,2.966,0,0,0-1.981-.186c-1.8.679-2.547,1.146-2.547,2.511,0,0,0,0,0,.007.133,4.235,3,7.629,6.5,7.629,3.588,0,6.507-3.561,6.507-7.939A5.965,5.965,0,0,0,22.787,10.9ZM10.466,13.793a.342.342,0,0,0-.68.06v1.53a.735.735,0,0,0,.68.865V13.793Zm15.068,0v2.455a.735.735,0,0,0,.68-.865v-1.53a.342.342,0,0,0-.68-.06ZM13.989,4.772a7.368,7.368,0,0,1,8.017,0,6.816,6.816,0,0,1,3.8.069c-.981-1.608-2.243-1.895-4.157-1.819a.515.515,0,0,1-.464-.263,3.828,3.828,0,0,0-6.37,0,.512.512,0,0,1-.466.265c-1.926-.076-3.182.213-4.159,1.82a5.962,5.962,0,0,1,1.919-.3A8.2,8.2,0,0,1,13.989,4.772Zm3.687,31.114c-.2-.171-.4-.325-.568-.461-.841-.671-1.448-1.155-1.448-2.157a1.567,1.567,0,0,1,.544-1.192,5.389,5.389,0,0,0-2.519-.853,3.44,3.44,0,0,0-3.39,3.481v.774a.514.514,0,1,1-1.027,0V34.7a4.483,4.483,0,0,1,4.418-4.536,7.8,7.8,0,0,1,4.158,1.708,1.5,1.5,0,0,1,.157.092,1.5,1.5,0,0,1,.157-.092,7.8,7.8,0,0,1,4.158-1.708A4.483,4.483,0,0,1,26.733,34.7v.774a.514.514,0,1,1-1.027,0V34.7a3.44,3.44,0,0,0-3.39-3.481,5.389,5.389,0,0,0-2.519.853,1.567,1.567,0,0,1,.544,1.192c0,1-.607,1.487-1.448,2.157-.17.136-.363.29-.568.461a.5.5,0,0,1-.648,0Zm.983-3.086-.2.139a.492.492,0,0,0-.037.049.506.506,0,0,1-.85,0,.514.514,0,0,0-.037-.049l-.2-.139a.473.473,0,0,0-.169-.031.493.493,0,0,0-.485.5c0,.464.253.687,1.051,1.325L18,34.8l.262-.21c.8-.637,1.051-.861,1.051-1.325a.493.493,0,0,0-.485-.5A.473.473,0,0,0,18.659,32.8ZM5.02,35.476c0-3.072.518-4.943,1.732-6.256a.5.5,0,0,1,.726-.019.537.537,0,0,1,.019.746c-1.03,1.114-1.45,2.716-1.45,5.529a.514.514,0,1,1-1.027,0Zm24.514-8.517q-.079-.842-.156-1.646a.524.524,0,0,1,.461-.576.517.517,0,0,1,.561.473q.077.805.156,1.648a.524.524,0,0,1-.462.575l-.05,0a.519.519,0,0,1-.511-.477ZM15.768,20.421a.537.537,0,0,1,.042-.745.5.5,0,0,1,.725.044,1.871,1.871,0,0,0,2.929,0,.5.5,0,0,1,.725-.044.537.537,0,0,1,.042.745,2.879,2.879,0,0,1-4.465,0ZM13.6,15.931a.537.537,0,0,1,0-.746.5.5,0,0,1,.726,0,1.039,1.039,0,0,0,1.5,0,.5.5,0,0,1,.726,0,.537.537,0,0,1,0,.746,2.047,2.047,0,0,1-2.949,0Zm5.86,0a.537.537,0,0,1,0-.746.5.5,0,0,1,.727,0,1.039,1.039,0,0,0,1.5,0,.5.5,0,0,1,.726,0,.537.537,0,0,1,0,.746,2.047,2.047,0,0,1-2.949,0Zm2.99-2.6a2.925,2.925,0,0,0-2.472,0,.507.507,0,0,1-.695-.218.535.535,0,0,1,.213-.713,3.943,3.943,0,0,1,3.436,0,.535.535,0,0,1,.213.713.512.512,0,0,1-.454.28A.5.5,0,0,1,22.446,13.333Z" transform="translate(0)"/></g></svg>