<svg xmlns="http://www.w3.org/2000/svg" width="32" height="36" viewBox="0 0 32 36"><defs><style>.a{fill:#e7d1a7;}</style></defs><g transform="translate(-21.476 0)"><path class="a" d="M53.368,31.36a.748.748,0,0,0-.651-.381H49.044V9.479A1.66,1.66,0,0,0,47.412,7.8H41.182V7.245a1.872,1.872,0,0,0,.829-.5,3.983,3.983,0,0,0,1.122-2.791,3.983,3.983,0,0,0-1.122-2.791L41.033.155a.5.5,0,0,0-.724,0L39.33,1.164a4.038,4.038,0,0,0,0,5.582h0a1.871,1.871,0,0,0,.829.5V7.8H34.113a1.66,1.66,0,0,0-1.632,1.682V22.926a12.686,12.686,0,0,0-1.948-2.34.5.5,0,0,0-.724,0,11.29,11.29,0,0,0-2.546,3.464A8.735,8.735,0,0,0,23.6,22.74a.514.514,0,0,0-.592.428,9.822,9.822,0,0,0-.161,3.347c-.175,0,.067,0-.86,0a.52.52,0,0,0-.512.527,8.864,8.864,0,0,0,1.442,5.472.507.507,0,0,0,.419.224.5.5,0,0,0,.294-.1.538.538,0,0,0,.124-.735A7.546,7.546,0,0,1,22.5,27.568c.177,0,.319,0,.568.009a8.285,8.285,0,0,0,.692,1.733,8.081,8.081,0,0,0,3.711,3.507,9.814,9.814,0,0,0,1.453,2.108,6.827,6.827,0,0,1-3.859-1.572.5.5,0,0,0-.72.077.538.538,0,0,0,.075.742A7.822,7.822,0,0,0,29.428,36h1.485a7.732,7.732,0,0,0,1.448-.137A5.58,5.58,0,0,0,33.588,36H44.013a.528.528,0,0,0,0-1.055h-9.2a8.126,8.126,0,0,0,2.91-2.912H52.274l-.184.353a4.69,4.69,0,0,1-4.152,2.558H46.059a.528.528,0,0,0,0,1.055h1.878a5.708,5.708,0,0,0,5.054-3.114l.394-.755a.8.8,0,0,0-.017-.771ZM40.054,1.909l.617-.636.617.636a2.955,2.955,0,0,1,0,4.091.857.857,0,0,1-.61.263h-.014A.857.857,0,0,1,40.054,6h0A2.959,2.959,0,0,1,40.054,1.909ZM35.685,28.8a7.11,7.11,0,0,1-2.177,2.449,10.214,10.214,0,0,0-.043-6.2,7.09,7.09,0,0,1,2.946-1.181A7.455,7.455,0,0,1,35.685,28.8ZM29.893,21.99l.277-.286.277.286a9.006,9.006,0,0,1,0,12.45l-.277.286-.277-.286A9.006,9.006,0,0,1,29.893,21.99ZM24.656,28.8a7.451,7.451,0,0,1-.726-4.928,6.851,6.851,0,0,1,2.946,1.181,10.214,10.214,0,0,0-.043,6.2A7.111,7.111,0,0,1,24.656,28.8Zm6.758,6.129a9.812,9.812,0,0,0,1.454-2.11A8.08,8.08,0,0,0,36.58,29.31a8.285,8.285,0,0,0,.692-1.733c.25-.013.4-.008.568-.009v.238A7.063,7.063,0,0,1,31.414,34.926Zm6.829-3.947a9.449,9.449,0,0,0,.62-3.938.52.52,0,0,0-.512-.527c-.948,0-.679,0-.859,0a9.842,9.842,0,0,0-.161-3.347.513.513,0,0,0-.592-.429A9,9,0,0,0,33.5,23.787V16.416a1.884,1.884,0,0,0,.918.238,1.973,1.973,0,0,0,1.941-2V11.748a.692.692,0,0,1,.68-.7h.03a.692.692,0,0,1,.68.7v7.269a1.892,1.892,0,1,0,3.782,0v-4.7a.692.692,0,0,1,.68-.7h.133a.692.692,0,0,1,.68.7v.274a1.841,1.841,0,0,0,.525,1.285,1.642,1.642,0,0,0,1.21.5,1.74,1.74,0,0,0,1.671-1.755V12.79a.512.512,0,1,0-1.023,0v1.832a.7.7,0,0,1-.667.7.646.646,0,0,1-.474-.2.763.763,0,0,1-.219-.533v-.274a1.732,1.732,0,0,0-1.7-1.756h-.133a1.732,1.732,0,0,0-1.7,1.756v4.7a.868.868,0,1,1-1.735,0V11.748a1.732,1.732,0,0,0-1.7-1.756h-.03a1.732,1.732,0,0,0-1.7,1.756v2.906a.918.918,0,1,1-1.835,0V9.479a.619.619,0,0,1,.609-.628h11.3v1.83a.512.512,0,1,0,1.023,0V8.851h.976a.619.619,0,0,1,.609.628v21.5Z" transform="translate(0 0)"/><path class="a" d="M340.509,247.876a1.832,1.832,0,0,0-1.83,1.83v1.207a1.83,1.83,0,1,0,3.659,0v-1.207A1.832,1.832,0,0,0,340.509,247.876Zm.775,3.037a.775.775,0,1,1-1.55,0v-1.207a.775.775,0,1,1,1.55,0Z" transform="translate(-295.646 -230.448)"/></g></svg>