<svg xmlns="http://www.w3.org/2000/svg" width="15" height="11" viewBox="0 0 15 11"><defs><style>.a{fill:#803e38;}</style></defs><path class="a" d="M14.716,8.132A.177.177,0,0,1,15,8.267v5.858A1.391,1.391,0,0,1,13.594,15.5H1.406A1.391,1.391,0,0,1,0,14.125V8.27a.176.176,0,0,1,.284-.135c.656.5,1.526,1.132,4.515,3.254.618.441,1.661,1.369,2.7,1.364s2.109-.94,2.7-1.364C13.192,9.267,14.06,8.631,14.716,8.132ZM7.5,11.833c.68.011,1.658-.836,2.15-1.186,3.888-2.759,4.184-3,5.08-3.687A.68.68,0,0,0,15,6.419V5.875A1.391,1.391,0,0,0,13.594,4.5H1.406A1.391,1.391,0,0,0,0,5.875v.544a.684.684,0,0,0,.27.541c.9.685,1.192.928,5.08,3.687C5.842,11,6.82,11.845,7.5,11.833Z" transform="translate(0 -4.5)"/></svg>