<svg xmlns="http://www.w3.org/2000/svg" width="31" height="31" viewBox="0 0 31 31"><defs><style>.a{fill:#803e38;}</style></defs><g transform="translate(0)"><path class="a" d="M412,126.605a.605.605,0,1,0,.605-.605A.606.606,0,0,0,412,126.605Zm0,0" transform="translate(-387.055 -118.371)"/><path class="a" d="M433.84,166.035a11.535,11.535,0,0,1-.231,2.3.605.605,0,0,0,.472.714.6.6,0,0,0,.122.013.606.606,0,0,0,.593-.485,12.744,12.744,0,0,0,.255-2.543,12.578,12.578,0,0,0-1.229-5.453.605.605,0,1,0-1.093.521A11.378,11.378,0,0,1,433.84,166.035Zm0,0" transform="translate(-406.473 -150.535)"/><path class="a" d="M202.66,214.477h-.605v-7.871a.605.605,0,0,0-.605-.605h-4.844a.605.605,0,0,0-.605.605v2.422a.605.605,0,0,0,.605.605h.605v4.844h-.605a.605.605,0,0,0-.605.606V217.5a.605.605,0,0,0,.605.605h6.055a.605.605,0,0,0,.605-.605v-2.422A.605.605,0,0,0,202.66,214.477Zm-.605,2.422h-4.844v-1.211h.605a.605.605,0,0,0,.605-.605v-6.055a.605.605,0,0,0-.605-.605h-.605v-1.211h3.633v7.871a.606.606,0,0,0,.605.605h.605Zm0,0" transform="translate(-184.133 -193.527)"/><path class="a" d="M218.422,110.844A2.422,2.422,0,1,0,216,108.422,2.425,2.425,0,0,0,218.422,110.844Zm0-3.633a1.211,1.211,0,1,1-1.211,1.211A1.212,1.212,0,0,1,218.422,107.211Zm0,0" transform="translate(-202.922 -99.582)"/><path class="a" d="M15.5,0A15.763,15.763,0,0,0,0,15.5a16.511,16.511,0,0,0,2.2,8.2L.031,30.2a.605.605,0,0,0,.766.766L7.3,28.8A16.506,16.506,0,0,0,15.5,31,15.762,15.762,0,0,0,31,15.5,15.762,15.762,0,0,0,15.5,0Zm0,29.789a15.144,15.144,0,0,1-7.8-2.164.605.605,0,0,0-.516-.063L1.562,29.437l1.875-5.626a.6.6,0,0,0-.063-.516A15.144,15.144,0,0,1,1.21,15.5,14.48,14.48,0,0,1,15.5,1.211,14.48,14.48,0,0,1,29.789,15.5,14.48,14.48,0,0,1,15.5,29.789Zm0,0" transform="translate(0)"/></g></svg>