<svg xmlns="http://www.w3.org/2000/svg" width="18" height="16" viewBox="0 0 18 16"><defs><style>.a{fill:#803e38;}</style></defs><path class="a" d="M17.473,20.481H13.465V17.5a.515.515,0,0,0-.527-.5H.527A.515.515,0,0,0,0,17.5V30.49A2.579,2.579,0,0,0,2.637,33H15.363A2.579,2.579,0,0,0,18,30.49V20.983A.515.515,0,0,0,17.473,20.481ZM2.637,32A1.547,1.547,0,0,1,1.055,30.49V18H12.41c0,13.271-.007,12.533.012,12.722A2.434,2.434,0,0,0,12.939,32ZM16.945,30.49A1.547,1.547,0,0,1,15.363,32h-.316a1.547,1.547,0,0,1-1.582-1.506v-9h3.48Z" transform="translate(0 -17)"/><path class="a" d="M73.4,89H65.527a.5.5,0,1,0,0,1H73.4a.5.5,0,1,0,0-1Z" transform="translate(-62.715 -86.59)"/><path class="a" d="M73.4,153H65.527a.5.5,0,1,0,0,1H73.4a.5.5,0,1,0,0-1Z" transform="translate(-62.715 -148.448)"/><path class="a" d="M73.4,393H65.527a.5.5,0,1,0,0,1H73.4a.5.5,0,1,0,0-1Z" transform="translate(-62.715 -380.414)"/><path class="a" d="M181.465,217h-3.937a.515.515,0,0,0-.527.5v3.749a.515.515,0,0,0,.527.5h3.938a.515.515,0,0,0,.527-.5V217.5A.515.515,0,0,0,181.465,217Zm-.527,3.749h-2.883V218h2.883Z" transform="translate(-170.777 -210.305)"/><path class="a" d="M65.527,242h1.687a.5.5,0,1,0,0-1H65.527a.5.5,0,1,0,0,1Z" transform="translate(-62.715 -233.502)"/><path class="a" d="M65.527,306h1.687a.5.5,0,1,0,0-1H65.527a.5.5,0,1,0,0,1Z" transform="translate(-62.715 -295.36)"/></svg>