<svg xmlns="http://www.w3.org/2000/svg" width="36" height="36" viewBox="0 0 36 36"><defs><style>.a{fill:#d1c1a5;}</style></defs><g transform="translate(0)"><g transform="translate(0)"><path class="a" d="M35.53.469l-.005,0A1.612,1.612,0,0,0,34.4,0h0a1.6,1.6,0,0,0-1,.35C29.57,3.408,25.727,6.564,21.977,9.731q-1.368,1.155-2.737,2.326L8.828,1.646a2.64,2.64,0,0,0-3.729,0L.155,6.591A.527.527,0,0,0,.9,7.337L4.354,3.883l.755.755L1.655,8.091a.527.527,0,0,0,.746.746L5.854,5.384l.755.755L3.156,9.592a.527.527,0,0,0,.746.746L7.355,6.884l.755.755L4.656,11.092a.527.527,0,0,0,.746.746L8.855,8.385l.755.755L6.156,12.593a.527.527,0,0,0,.746.746l3.453-3.453.755.755L7.657,14.093a.527.527,0,0,0,.746.746l3.453-3.453.755.755L9.157,15.594a.527.527,0,0,0,.746.746l3.453-3.453.755.755-3.453,3.453a.527.527,0,0,0,.746.746l3.453-3.453.781.781q-2.429,2.115-4.823,4.249h0c-.473.421-.989.906-1.5,1.365a.531.531,0,0,0-.1.777h0a3.524,3.524,0,0,1-.24,4.709l-1.59,1.59a3.688,3.688,0,1,1,.228-4.9.528.528,0,0,0,.764.059l.008-.007,0,0a.527.527,0,0,0-.046-.82,4.738,4.738,0,0,0-3.6-1.651H4.741A4.744,4.744,0,1,0,6.2,29.8,4.746,4.746,0,0,0,10.709,36h.006a4.744,4.744,0,0,0,3.392-8.061l1.077-1.224q2.85-3.171,5.636-6.367l.795.795L18.16,24.6a.527.527,0,0,0,.746.746l3.453-3.453.755.755L19.661,26.1a.527.527,0,0,0,.746.746l3.453-3.453.755.755L21.161,27.6a.527.527,0,0,0,.746.746L25.36,24.89l.755.755L22.662,29.1a.527.527,0,0,0,.746.746l3.453-3.453.755.755L24.162,30.6a.527.527,0,0,0,.746.746l3.453-3.453.755.755L25.663,32.1a.527.527,0,0,0,.746.746l3.453-3.453.755.755L27.163,33.6a.527.527,0,0,0,.746.746l3.453-3.453.755.755L28.664,35.1a.527.527,0,0,0,.746.746l3.826-3.826h0L34.354,30.9a2.637,2.637,0,0,0,0-3.729L23.931,16.749C27.974,12.032,31.894,7.3,35.65,2.6A1.6,1.6,0,0,0,35.53.469ZM5.1,3.138l.746-.746a1.584,1.584,0,0,1,2.237,0L18.438,12.747q-1,.861-2,1.727Zm28.509,24.78a1.582,1.582,0,0,1,0,2.237l-.746.746L21.513,19.551q.868-1,1.729-2ZM14.692,25.683a2.016,2.016,0,0,1-1.05-1.5.527.527,0,0,0-1.048.124h0a2.875,2.875,0,0,0,1.28,2.085c.037.025.075.05.113.078-.366.417-.668.769-1.014,1.151a.528.528,0,0,0,.059.764,3.69,3.69,0,1,1-6.012,2.87,3.77,3.77,0,0,1,1.139-2.678l1.564-1.564a4.579,4.579,0,0,0,1.337-3.244,4.509,4.509,0,0,0-.735-2.481c.413-.378.772-.713,1.189-1.084l0,0C22.953,10.007,33.922,1.244,34.128,1.126c-.141.141-20.717,20.708-20.811,20.815a.527.527,0,0,0,.789.7c.063-.072,20.618-20.619,20.768-20.77C34.831,1.947,26.338,12.7,14.692,25.683Z" transform="translate(0)"/></g><g transform="translate(2.282 22.328)"><path class="a" d="M34.875,322.9a2.85,2.85,0,1,0,0,4.032A2.856,2.856,0,0,0,34.875,322.9Zm-.807,3.226a1.71,1.71,0,1,1-1.21-2.919A1.713,1.713,0,0,1,34.068,326.126Z" transform="translate(-30.006 -322.063)"/></g><g transform="translate(7.96 28.018)"><path class="a" d="M117.673,407.051a2.854,2.854,0,0,0-.023,5.707,2.9,2.9,0,0,0,1.111-.225,2.807,2.807,0,0,0,1.765-2.631A2.855,2.855,0,0,0,117.673,407.051Zm.65,4.428a1.708,1.708,0,1,1-.65-3.288,1.713,1.713,0,0,1,1.711,1.711A1.688,1.688,0,0,1,118.324,411.479Z" transform="translate(-114.818 -407.051)"/></g></g></svg>