<svg xmlns="http://www.w3.org/2000/svg" width="37" height="33" viewBox="0 0 37 33"><defs><style>.a{fill:#803e38;}</style></defs><g transform="translate(0 -25.6)"><rect class="a" width="1.233" height="1.233" transform="translate(2.467 54.9)"/><rect class="a" width="1.233" height="1.233" transform="translate(13.567 54.9)"/><rect class="a" width="1.233" height="1.233" transform="translate(9.867 54.9)"/><rect class="a" width="1.233" height="1.233" transform="translate(6.167 54.9)"/><rect class="a" width="1.233" height="1.233" transform="translate(8.017 52.433)"/><rect class="a" width="1.233" height="1.233" transform="translate(4.317 52.433)"/><rect class="a" width="1.233" height="1.233" transform="translate(11.717 52.433)"/><path class="a" d="M33.917,41.489h-7.4a2.989,2.989,0,0,0,.617-1.833v-11A3.07,3.07,0,0,0,24.05,25.6H12.95a3.07,3.07,0,0,0-3.083,3.056v11a2.99,2.99,0,0,0,.617,1.833h-7.4A3.07,3.07,0,0,0,0,44.544v11A3.07,3.07,0,0,0,3.083,58.6h11.1a3.07,3.07,0,0,0,3.083-3.056v-11a2.99,2.99,0,0,0-.617-1.833h3.7a2.989,2.989,0,0,0-.617,1.833v11A3.07,3.07,0,0,0,22.817,58.6h11.1A3.07,3.07,0,0,0,37,55.544v-11A3.07,3.07,0,0,0,33.917,41.489ZM11.1,39.656v-11a1.842,1.842,0,0,1,1.85-1.833h11.1a1.842,1.842,0,0,1,1.85,1.833v11a1.842,1.842,0,0,1-1.85,1.833H12.95A1.842,1.842,0,0,1,11.1,39.656Zm4.933,4.889v11a1.842,1.842,0,0,1-1.85,1.833H3.083a1.842,1.842,0,0,1-1.85-1.833v-11a1.842,1.842,0,0,1,1.85-1.833h11.1A1.842,1.842,0,0,1,16.033,44.544Zm19.733,11a1.842,1.842,0,0,1-1.85,1.833h-11.1a1.842,1.842,0,0,1-1.85-1.833v-11a1.842,1.842,0,0,1,1.85-1.833h11.1a1.842,1.842,0,0,1,1.85,1.833Z" transform="translate(0)"/><rect class="a" width="1.233" height="1.233" transform="translate(22.2 54.9)"/><rect class="a" width="1.233" height="1.233" transform="translate(33.3 54.9)"/><rect class="a" width="1.233" height="1.233" transform="translate(29.6 54.9)"/><rect class="a" width="1.233" height="1.233" transform="translate(25.9 54.9)"/><rect class="a" width="1.233" height="1.233" transform="translate(27.75 52.433)"/><rect class="a" width="1.233" height="1.233" transform="translate(24.05 52.433)"/><rect class="a" width="1.233" height="1.233" transform="translate(31.45 52.433)"/><rect class="a" width="1.233" height="1.233" transform="translate(12.333 39.04)"/><rect class="a" width="1.233" height="1.233" transform="translate(23.434 39.04)"/><rect class="a" width="1.233" height="1.233" transform="translate(19.734 39.04)"/><rect class="a" width="1.233" height="1.233" transform="translate(16.033 39.04)"/><rect class="a" width="1.233" height="1.233" transform="translate(17.884 36.596)"/><rect class="a" width="1.233" height="1.233" transform="translate(14.183 36.596)"/><rect class="a" width="1.233" height="1.233" transform="translate(21.584 36.596)"/></g></svg>