<svg xmlns="http://www.w3.org/2000/svg" width="17" height="17" viewBox="0 0 17 17"><defs><style>.a{fill:#803e38;}</style></defs><path class="a" d="M4.488,12.343A8.335,8.335,0,0,1,5.635,8.07a8.493,8.493,0,0,1,3.1-3.1A8.484,8.484,0,0,1,16.294,4.5,8.576,8.576,0,0,1,19,6.312a8.323,8.323,0,0,1,1.812,2.718,8.442,8.442,0,0,1-4.522,11.127,8.472,8.472,0,0,1-6.613,0,8.365,8.365,0,0,1-4.529-4.514A8.181,8.181,0,0,1,4.488,12.343Zm1.872,0a6.416,6.416,0,0,0,1.955,4.665A6.376,6.376,0,0,0,13,18.964a6.418,6.418,0,0,0,3.314-.891,6.7,6.7,0,0,0,2.423-2.416,6.576,6.576,0,0,0,0-6.635A6.66,6.66,0,0,0,16.31,6.6a6.61,6.61,0,0,0-6.628,0A6.8,6.8,0,0,0,7.251,9.022,6.392,6.392,0,0,0,6.36,12.343Zm2.982,1.578a.644.644,0,0,1,.287-.385l2.71-1.578V7.316a.627.627,0,1,1,1.253,0v5.035a.616.616,0,0,1-.128.377.58.58,0,0,1-.317.219l-2.9,1.683a.534.534,0,0,1-.31.091.588.588,0,0,1-.544-.317A.674.674,0,0,1,9.342,13.921Z" transform="translate(-4.488 -3.828)"/></svg>